# xmcd
#
# Track frame offsets: 
#        150
#        11398
#        24441
#        35781
#        51482
#        67536
#        84605
#        101105
#        114665
#        126348
#
# Disc length: 1842 seconds
#
# Revision: 0
# Processed by: cddbd v1.5.2PL0 Copyright (c) Steve Scherf et al.
# Submitted via: ExactAudioCopy v0.99pb5
#
DISCID=8107300a
DTITLE=Ray Price - Country Hit Parade
DYEAR=1900
DGENRE=Country
TTITLE0=Crazy Arms
TTITLE1=City Lights
TTITLE2=My Shoes Keep Walking Back to You
TTITLE3=I Won't Mention It Again
TTITLE4=She's Got to Be a Saint
TTITLE5=For the Good Times
TTITLE6=You're the Best Thing That Ever Happened to Me
TTITLE7=The Other Woman (In My Life)
TTITLE8=Make the World Go Away
TTITLE9=Heartaches by the Number
EXTD=
EXTT0=
EXTT1=
EXTT2=
EXTT3=
EXTT4=
EXTT5=
EXTT6=
EXTT7=
EXTT8=
EXTT9=
PLAYORDER=
